<?xml version="1.0" encoding="UTF-8"?>
<svg xmlns="http://www.w3.org/2000/svg" xmlns:xlink="http://www.w3.org/1999/xlink" width="321.443pt" height="118.512pt" viewBox="0 0 321.443 118.512">
<path fill-rule="nonzero" fill="#e8732c" fill-opacity="1" d="M 81.332031 38.546875 C 83.984375 35.925781 87.109375 33.902344 90.691406 32.472656 C 94.277344 31.046875 98.160156 30.332031 102.34375 30.332031 C 106.328125 30.332031 110.046875 30.980469 113.5 32.273438 C 116.949219 33.566406 120.105469 35.675781 122.960938 38.597656 L 127.640625 33.917969 C 124.585938 30.53125 120.835938 27.992188 116.386719 26.296875 C 111.9375 24.605469 107.191406 23.757812 102.144531 23.757812 C 96.898438 23.757812 92.054688 24.640625 87.605469 26.398438 C 83.15625 28.15625 79.289062 30.628906 76.003906 33.816406 C 72.714844 37.003906 70.160156 40.753906 68.335938 45.070312 C 66.507812 49.386719 65.597656 54.101562 65.597656 59.210938 C 65.597656 64.328125 66.507812 69.039062 68.335938 73.355469 C 70.160156 77.671875 72.699219 81.421875 75.953125 84.609375 C 79.207031 87.792969 83.058594 90.269531 87.503906 92.027344 C 91.953125 93.785156 96.800781 94.667969 102.046875 94.667969 C 107.15625 94.667969 111.9375 93.804688 116.386719 92.078125 C 120.835938 90.351562 124.585938 87.792969 127.640625 84.410156 L 122.960938 79.726562 C 120.105469 82.648438 116.949219 84.773438 113.5 86.101562 C 110.046875 87.429688 106.328125 88.09375 102.34375 88.09375 C 98.160156 88.09375 94.277344 87.378906 90.691406 85.953125 C 87.109375 84.523438 83.984375 82.5 81.332031 79.878906 C 78.675781 77.253906 76.601562 74.199219 75.105469 70.714844 C 73.613281 67.230469 72.867188 63.394531 72.867188 59.210938 C 72.867188 55.03125 73.613281 51.195312 75.105469 47.710938 C 76.601562 44.222656 78.675781 41.171875 81.332031 38.546875 "/>
<path fill-rule="nonzero" fill="#e8732c" fill-opacity="1" d="M 166.289062 42.921875 C 164.449219 41.269531 161.90625 40.234375 158.714844 39.824219 L 168.335938 27.75 C 168.476562 27.574219 168.550781 27.355469 168.550781 27.128906 L 168.550781 24.355469 C 168.550781 23.804688 168.105469 23.359375 167.554688 23.359375 L 143.082031 23.359375 C 142.53125 23.359375 142.085938 23.804688 142.085938 24.355469 L 142.085938 27.835938 C 142.085938 28.386719 142.53125 28.832031 143.082031 28.832031 L 160.46875 28.832031 L 151.222656 40.433594 C 151.082031 40.609375 151.007812 40.828125 151.007812 41.050781 L 151.007812 43.933594 C 151.007812 44.484375 151.453125 44.929688 152.003906 44.929688 L 154.722656 44.929688 C 158.015625 44.929688 160.429688 45.546875 161.886719 46.765625 C 163.3125 47.957031 164.003906 49.519531 164.003906 51.550781 C 164.003906 53.574219 163.296875 55.136719 161.839844 56.324219 C 160.347656 57.546875 158.117188 58.167969 155.210938 58.167969 C 152.882812 58.167969 150.710938 57.769531 148.753906 56.988281 C 146.808594 56.210938 145.25 55.226562 144.125 54.0625 C 143.910156 53.84375 143.605469 53.738281 143.300781 53.769531 C 142.992188 53.800781 142.722656 53.976562 142.5625 54.234375 L 140.65625 57.335938 C 140.417969 57.730469 140.476562 58.234375 140.800781 58.5625 C 142.382812 60.144531 144.492188 61.421875 147.066406 62.355469 C 149.609375 63.277344 152.351562 63.746094 155.210938 63.746094 C 158.429688 63.746094 161.164062 63.222656 163.335938 62.183594 C 165.554688 61.121094 167.246094 59.636719 168.359375 57.769531 C 169.460938 55.914062 170.019531 53.804688 170.019531 51.496094 C 170.019531 48.023438 168.765625 45.140625 166.289062 42.921875 "/>
<path fill-rule="nonzero" fill="#e8732c" fill-opacity="1" d="M 249.21875 24.355469 L 219.234375 76 L 188.964844 24.355469 L 182.890625 24.355469 L 182.890625 94.070312 L 189.960938 94.070312 L 189.960938 38.628906 L 217.347656 85.207031 L 220.835938 85.207031 L 248.222656 38.308594 L 248.222656 94.070312 L 255.292969 94.070312 L 255.292969 24.355469 Z M 249.21875 24.355469 "/>
</svg>
